<?xml version="1.0" standalone="no"?>
<!DOCTYPE svg PUBLIC "-//W3C//DTD SVG 1.1//EN" "http://www.w3.org/Graphics/SVG/1.1/DTD/svg11.dtd">
<svg xmlns="http://www.w3.org/2000/svg">
<metadata>Generated by Fontastic.me</metadata>
<defs>
<font id="ownego-official" horiz-adv-x="512">
<font-face font-family="ownego-official" units-per-em="512" ascent="480" descent="-32"/>
<missing-glyph horiz-adv-x="512" />

<glyph glyph-name="close" unicode="&#97;" d="M455 507l-200-200-199 200-50-51 199-199-199-199 50-50 199 199 200-199 50 50-200 199 200 199z"/>
<glyph glyph-name="devices" unicode="&#98;" d="M173 512c-9 0-16-3-23-9-6-7-9-14-9-23l0-449c0-9 3-16 9-22 7-7 14-10 23-10l192 0c9 0 17 3 23 10 6 6 9 13 9 22l0 449c0 9-3 16-9 23-6 6-14 9-23 9z m80-43l32 0c4 0 6-2 6-5 0-4-2-5-6-5l-32 0c-3 0-5 1-5 5 0 3 2 5 5 5z m-21-10c-4 0-5 1-5 5 0 3 1 5 5 5 3 0 5-2 5-5 0-4-2-5-5-5z m37-396c15 0 22-7 22-21 0-14-7-21-22-21-14 0-21 7-21 21 0 14 7 21 21 21z m-107 22l0 342 214 0 0-342z"/>
<glyph glyph-name="nav" unicode="&#100;" d="M512 234l0 52-512 0 0-52z m0 154l0 51-512 0 0-51z m0-307l0 51-512 0 0-51z"/>
<glyph glyph-name="paint" unicode="&#101;" d="M68 188c-18-21-26-46-26-76 0-27-13-45-39-55 9-17 28-29 57-35 29-6 54-8 76-4 57 10 91 39 101 87 7 33 0 60-22 82-22 21-48 32-79 32-28 0-51-10-68-31z m375 288l-197-173c-11 2-19 1-25-3l-67-55c-2-2-2-4 0-7 0 0 1-1 2-1l3 0c28-1 52-11 72-30 19-19 29-42 28-71l0-1c0-2 0-3 1-3 2-3 5-3 7 0l56 65c4 7 6 15 3 26l174 197c13 16 11 33-6 50-17 17-26 26-26 26 0 0-8-7-25-20z"/>
<glyph glyph-name="rocket" unicode="&#102;" d="M3 204l20-20c2-2 4-3 7-3 2 0 3 0 3 0l87 27 88-88-27-87c-1-4 0-7 3-10l20-20c2-2 4-3 7-3 2 0 4 1 5 1l120 71c3 2 5 4 5 8l7 119c24 20 44 38 61 55 37 37 64 75 79 113 16 38 24 83 24 135 0 3-1 5-3 7-2 2-5 3-8 3-54 0-99-8-135-22-35-15-73-42-112-81-17-17-35-38-55-61l-119-7c-3 0-6-2-8-5l-70-120c-3-4-2-8 1-12z m409 238c8 0 15-3 21-9 6-6 9-13 9-21 0-9-3-16-9-22-6-6-13-9-21-9-9 0-16 3-22 9-5 6-8 13-8 22 0 8 3 15 8 21 6 6 13 9 22 9z"/>
<glyph glyph-name="sign-founders" unicode="&#103;" d="M196 340c5 0 8 1 12 2 3 1 6 2 7 3 2 1 2 2 2 3 0 0 0 0-2 0-1 0-2 0-4 0-2 0-32 0-89 0-18 0-35-3-50-7-16-5-29-11-38-18-10-7-18-14-23-21-6-8-9-14-9-19 0-5 2-9 5-11 3-3 7-4 13-4 14 0 29 5 43 14 15 10 24 19 28 28 0 0 0 0 0 1 0 0 0 0-1 0 0 0-1 0-3-2-9-10-20-18-33-24-13-6-24-9-34-9-9 0-14 3-14 9 0 4 3 10 9 16 6 6 13 12 23 18 9 6 21 11 35 15 14 4 28 6 42 6l2 0 18 0c21 0 41 0 61 0z m-69-8l-5-2c-2 0-3-2-4-3 0 0-13-26-40-76-24-1-37-2-39-3-3-3-4-4-4-5 0 0 0-1 1-1 9 1 22 2 39 3-15-28-22-43-22-43 0-1 0-1 2-1 1 0 2 0 5 1 2 1 3 2 4 4l20 39 13 0c14 0 23 0 27 0 1 0 3 0 5 2 2 1 3 2 3 3 0 1-4 2-13 2l-8 0c-5 0-13 0-24-1l41 79c0 0 0 1 0 1z m40-111c0 1 0 1-1 1 0 0-1 0-1 0-3-2-7-3-12-3l-2 0c5 7 8 13 8 19 0 9-4 13-13 13-4 0-8-1-12-5-4-3-6-7-6-12 0-2 0-4 1-5-6-8-9-14-9-19 0-6 2-9 6-9 3 0 7 2 11 4 4 3 8 6 12 11l2 0c6 0 11 1 15 4 1 0 1 1 1 1z m-34 12c-1 1-1 2-1 5 0 2 1 4 4 5 3 2 6 3 9 3 3 0 6-1 8-2 2-2 3-4 3-7 0-6-3-12-8-18-6 2-11 5-14 10 3 3 7 7 12 11 2 1 3 2 3 2 0 1-1 1-1 1 0 0-1 0-2 0-5-3-9-6-13-10z m12-17c-5-5-10-8-14-8-2 0-3 1-3 4 0 4 1 8 3 12 3-4 8-7 14-8z m49-14c7 0 20 6 38 19 1 0 2 1 2 2 0 1 0 1 0 1l-7-4c-4-2-9-5-15-8-5-2-9-4-12-4-2 0-3 1-3 2 1 3 3 6 6 11 2 2 4 5 5 7 2 2 4 5 6 8 3 4 5 7 7 9 0 1-2 1-4 2-2 0-3-1-3-2-4-6-11-13-21-21-10-9-17-14-20-14-2 0-2 1-2 3 0 2 5 11 17 27 1 1 1 2 1 2 0 1-1 1-4 2-1 0-2 0-3-1-14-19-21-31-21-35 0-2 2-4 5-4 7 0 18 7 34 22-2-2-3-3-4-4 0-1-2-4-4-7-2-4-3-6-3-8 0-3 1-5 5-5z m33 17c0 0 1 0 1 0 0 0 2 0 4 1 1 2 3 2 3 3l11 8 2 1c0 0 0 0 0-1 0 0-3-4-8-12-5-8-8-13-8-15 0-2 0-3 1-3 1 0 6 3 15 9 8 6 16 12 22 16 0 0-1-1-2-3-2-2-3-4-5-7-2-3-3-6-3-9 0-3 2-5 7-5 7 0 19 6 38 19 1 0 2 1 2 2 0 1 0 1-1 1l-6-4c-4-2-9-5-15-8-6-2-10-4-13-4-3 0-4 1-4 2 0 2 2 6 6 12 5 6 7 10 7 10 0 2 0 3-2 3-1 0-2 0-3-1-1 0-4-3-9-7-5-4-10-7-15-11-5-4-8-5-8-5-1 0-1 0-1 0 0 1 2 3 4 7 3 4 5 8 7 11 3 4 4 7 4 8 0 2-1 3-3 3-1 0-7-4-17-12-4-3-8-6-10-7 0 0-1-1-1-2z m149 53c13 18 20 29 20 33 0 1 0 3-1 4-1 1-2 1-3 1-6 0-15-6-26-20-11-14-21-29-28-45-9-1-19-6-29-15-10-9-15-16-15-22 0-4 3-6 9-6 6 0 14 5 25 15 0-1 0-3 0-4 0-8 2-12 8-12 3 0 6 1 9 3 2 2 4 3 4 5 0 0 0 0-1 0 0 0-1 0-3-1-3-1-4-2-5-2-4 0-6 2-6 7 0 4 1 8 2 11 13 14 27 30 40 48z m-3 1c-11-15-22-28-35-42 4 10 9 21 16 33 7 11 14 21 20 29 6 7 11 11 13 11 1 0 1-1 1-2 0-5-5-15-15-29z m-58-47c7 8 13 12 20 13-2-5-4-11-6-17-11-10-18-15-22-15-2 0-3 1-3 3 0 4 3 9 11 16z m35-19c0-4 4-7 10-7 7 0 15 2 23 7 9 4 17 9 24 14 1 0 2 1 2 2 0 1 0 1 0 1l-4-2c-7-4-16-9-25-13-5-2-10-3-15-3-4 0-6 2-6 5 0 3 3 7 10 11 7 4 10 6 10 7 0 1-1 1-3 1-2 0-4 0-5 0-4 0-7 1-7 3 0 2 3 6 10 10 6 5 11 7 14 7 3 0 5-1 5-2 0-1-1-3-3-4-1-1-2-2-2-2 0-1 1-1 2-1 0 0 1 0 3 1 2 1 4 2 6 4 2 1 3 3 3 4 0 3-2 4-6 4-8 0-16-3-26-9-10-5-14-10-14-15 0-3 4-5 12-5-12-7-18-13-18-18z m73 28c3 0 5 0 7-1 1 0 2 0 2-1 0 0-1-1-3-3-2-2-4-4-6-6-3-2-5-5-7-8-2-3-3-6-3-9 0-3 2-5 6-5 7 0 20 6 38 19 1 0 2 1 2 2 0 1 0 1 0 1l-7-4c-4-2-9-5-15-8-6-2-9-4-11-4-2 0-3 1-4 1 0 1 0 2 0 3 0 3 1 7 4 11 3 3 6 6 8 7 3 2 4 4 4 6 0 2-3 4-10 5 5 6 8 11 8 16 0 3-2 5-4 5-4 0-9-2-13-6-5-5-7-8-7-12 0-3 3-6 9-8-7-7-13-12-18-15-1-1-1-1-1-2 0 0 0 0 1 0 0 0 1 0 1 0 5 3 12 8 19 16z m-2 19c3 2 5 4 7 4 2 0 3-2 3-5 0-3-2-7-5-11-6 1-9 3-9 5 0 2 1 5 4 7z m49-31c2-2 3-3 4-4-6-1-12-3-17-6-6-3-9-7-9-10 0-4 3-6 9-6 6 0 12 2 18 5 5 4 8 8 8 12 0 5-1 8-4 11-1 1-3 3-5 4-1 2-3 3-3 4 0 0 1 1 1 2 1 1 2 2 3 2 0 1 1 2 1 2 6 7 9 11 9 13 0 1-1 2-3 2-3 0-7-2-12-6-5-4-7-9-7-13 0-2 0-4 1-6-5-4-8-6-12-8 0-1 0-1 0-2 0 0 0 0 1 0 1 0 6 3 12 8 1-1 2-2 5-4z m6-7c0-2 0-4 0-6 0-2-1-4-4-6-3-1-6-2-10-2-4 0-6 1-6 4 0 2 3 5 7 7 4 2 8 3 13 3z m-8 23c0 2 1 5 4 7 2 2 4 3 7 3 0 0 1 0 1-1 0-1-2-3-5-8l-6-5c-1 1-1 2-1 4z m44-31c0 3-1 4-4 4-2 0-3 0-5-1-1-1-2-3-2-4 0-2 1-3 1-4 1-1 2-1 4-1 1 0 3 1 4 2 1 1 2 3 2 4z"/>
<glyph glyph-name="social-facebook" unicode="&#104;" d="M299 392c0 13 2 22 7 27 5 5 16 8 33 8l45 0 0 85-75 0c-43 0-74-10-93-29-19-19-28-47-28-84l0-57-60 0 0-85 60 0 0-256 111 0 0 256 74 0 11 85-85 0z"/>
<glyph glyph-name="social-gplus" unicode="&#105;" d="M220 253c-8 6-12 11-12 17 0 4 5 11 13 19l0 1c10 8 19 14 24 19 6 6 12 14 18 26 6 11 9 25 9 39 0 23-9 45-26 65l15 0 67 38-151 0c-43 0-79-11-107-33-26-22-39-49-39-80 0-25 9-47 27-65 19-19 44-29 76-29l4 0c0-3-1-6-1-12 0-9 3-18 9-29-41-3-73-12-96-26-32-19-47-43-47-74 0-23 11-43 33-61 23-17 56-26 98-26 49 0 87 11 115 34 28 22 42 48 42 78 0 13-3 25-8 37-6 11-12 19-17 24-6 6-15 13-26 22z m-111 173c7 10 18 15 33 15 17 0 32-11 45-32 11-20 17-40 17-60 0-15-4-26-11-34-9-8-19-12-32-12-19 0-34 10-46 30-11 19-16 38-16 58 0 15 3 27 10 35z m107-329c-13-9-32-14-55-14-27 0-49 5-66 16-16 10-25 24-25 42 0 21 15 37 43 47 19 6 38 9 57 9 1 0 3 0 5 0 2-1 3-1 4-1 23-15 38-27 45-35 8-8 12-18 12-28 0-15-7-27-20-36z m205 380l-38 0 0-88-91 0 0-39 91 0 0-92 38 0 0 92 88 0 0 39-88 0z"/>
<glyph glyph-name="social-twitter" unicode="&#106;" d="M451 398c24 13 39 33 46 58-23-14-45-22-67-26-21 23-46 34-76 34-29 0-54-10-74-31-20-20-31-45-31-74 0-11 1-19 3-24-88 4-160 41-216 109-9-16-14-34-14-52 0-38 16-67 47-87-16 0-32 4-48 13l0-1c0-26 8-48 25-67 16-19 36-31 60-36-12-3-21-5-29-5-4 0-10 1-19 3 6-21 19-38 37-52 18-13 38-20 60-21-38-30-81-45-129-45-6 0-14 0-25 2 49-32 102-48 160-48 90 0 162 31 217 93 54 61 81 130 81 206l0 13c22 16 39 34 52 54-18-9-38-14-60-16z"/>
<glyph glyph-name="wrench" unicode="&#107;" d="M420 354l-60 11-11 61 63 62c-15 15-31 22-49 20-28-2-52-14-72-35-37-38-45-80-26-124 3-10 2-18-4-24-5-6-85-80-237-223-10-10-16-22-16-36 0-15 6-27 16-37 10-11 23-16 37-16 14 0 26 5 36 16l223 237c7 8 15 9 23 4 21-9 43-11 66-5 24 5 44 16 59 31 21 21 33 45 35 72 2 18-5 34-20 48z m-371-274c8 8 17 8 25 0 8-9 8-18 0-26-8-8-17-8-25 0-8 8-8 17 0 26z"/>
<glyph glyph-name="arrow-right" unicode="&#108;" d="M373 103c0 0 136 152 137 153-3 4-51 57-137 153-9-9-12-12-19-20l108-120-460 0c0-6 0-18 0-26l460 0-108-120c7-9 10-12 19-20z"/>
<glyph glyph-name="fly" unicode="&#109;" d="M3 20l0 182 363 53-363 52 0 182 507-234z"/>
<glyph glyph-name="logo" unicode="&#99;" d="M510 196c0 3-1 5-1 8 0 0 0 0 0 1 0 0 0 1 0 2 0 0-1 1-1 2 0 0 0 0 0 0-1 5-2 10-5 15 0 1-1 2-1 3-12 20-33 34-57 34-10 0-19-2-27-6 0 0 0 0-1-1 0 0 0 0 0 0-1 0-2-1-3-1-1-1-1-1-2-1 0 0-1-1-1-1-1 0-1-1-2-1 0 0 0-1-1-1-2-1-4-3-6-5 0 0 0 0-1 0 0-1 0-1-1-2 0 0-1 0-1-1 0 0-1 0-1-1-1 0-1-1-1-1-1 0-1-1-1-1-1-1-1-1-1-1-1-1-1-1-1-1-1-1-1-1-1-2 0 0-1-1-1-1 0 0 0-1-1-1-3-5-5-9-6-12 0 1 0 1 0 1-16-52-65-89-123-89-71 0-129 57-129 129 0 56 37 105 88 122 0 0-1 0-1 0 25 9 42 33 42 60 0 36-29 65-64 65-8 0-15-1-22-4-100-35-172-131-172-243 0-143 116-259 258-259 114 0 210 74 245 175 0 2 1 5 2 9 0 3 1 7 1 10z m-184 65c0-36-29-65-64-65-36 0-65 29-65 65 0 35 29 64 65 64 35 0 64-29 64-64z m73 201c-35 0-64-29-64-64 0-36 29-65 64-65 36 0 65 29 65 65 0 35-29 64-65 64z m0-95c-17 0-30 14-30 31 0 17 13 30 30 30 17 0 31-13 31-30 0-17-14-31-31-31z"/>
<glyph glyph-name="linkedin" unicode="&#111;" d="M470 512c11 0 21-4 29-11 8-8 12-17 12-29l0-427c0-12-4-22-12-31-8-9-18-13-29-13l-426 0c-12 0-22 4-31 13-9 9-13 19-13 31l0 427c0 12 4 21 13 29 8 7 18 11 31 11z m-374-152c7-8 16-12 28-12 11 0 21 4 28 12 8 7 12 16 12 27 0 11-4 21-11 28-7 8-16 12-28 12-11 0-21-4-28-12-8-7-12-17-12-28 0-11 4-20 11-27z m62-274l0 228-73 0 0-228z m268 0l0 133c0 33-8 58-23 75-16 17-36 25-61 25-27 0-49-12-66-37l0 32-74 0 0-228 74 0 0 129c0 9 0 15 2 19 7 18 20 26 37 26 25 0 38-16 38-49l0-125z"/>
<glyph glyph-name="github" unicode="&#110;" d="M76 434c49 51 109 77 180 77 71 0 131-26 180-77 50-51 75-113 75-185 0-57-16-108-49-154-33-45-74-77-125-94l-5 0c-9 0-13 4-13 14 0 0 0 9 0 25 1 17 1 32 1 45 0 22-6 39-18 49 34 5 63 16 84 34 22 18 33 49 33 95 0 27-9 51-26 70 7 22 6 46-3 70l-5 0c-18 0-39-9-65-27-22 6-44 9-64 9-20 0-42-3-64-9-26 18-47 27-65 27l-5 0c-9-24-10-48-3-70-17-19-26-43-26-70 0-46 11-77 32-95 21-18 49-29 84-34-8-8-13-20-16-35-9-5-19-7-29-7-19 0-34 10-45 29-10 16-23 25-39 27-16 0-17-5-2-16 12-6 21-19 29-39 1-3 2-6 4-11 3-4 9-9 19-16 10-7 23-10 37-10 11 0 19 0 25 2l0-45c0-8-4-12-12-12l-5 0c-51 17-93 49-126 94-32 45-48 96-48 154 0 72 25 134 75 185z"/>
<glyph glyph-name="arrow-left" unicode="&#112;" d="M142 408c-4 0-7-1-9-3l-126-139c-2-2-3-5-3-10 0-4 1-7 3-9 1-1 43-47 126-139 6-6 13-6 19 0 6 6 6 13 0 19l-106 117 450 0c9 0 13 4 13 12 0 9-4 13-13 13l-450 0 106 117c6 6 6 13 0 19-2 2-5 3-10 3z"/>
<glyph glyph-name="key-up" unicode="&#113;" d="M365 371c-2-3-5-5-8-5l-64 0 0-357c0-3-1-5-3-6-2-2-4-3-7-3l-54 0c-3 0-5 1-7 3-2 1-3 3-3 6l0 357-64 0c-4 0-6 2-8 5-1 4-1 7 2 10l100 110c1 2 4 3 6 3 3 0 5-1 7-3l101-110c3-3 3-6 2-10z"/>
<glyph glyph-name="key-down" unicode="&#114;" d="M365 141c1-4 1-7-2-10l-100-110c-1-2-4-3-6-3-3 0-5 1-7 3l-101 110c-3 3-3 6-2 10 2 3 5 5 8 5l64 0 0 357c0 3 1 5 3 6 2 2 4 3 7 3l54 0c3 0 5-1 7-3 2-1 3-3 3-6l0-357 64 0c4 0 6-2 8-5z"/>
<glyph glyph-name="key-left" unicode="&#115;" d="M512 283l0-54c0-3-1-5-3-7-1-2-3-3-6-3l-357 0 0-64c0-4-2-6-5-8-4-1-7-1-10 2l-110 100c-2 1-3 4-3 6 0 3 1 5 3 7l110 101c3 3 6 3 10 2 3-2 5-5 5-8l0-64 357 0c3 0 5-1 6-3 2-2 3-4 3-7z"/>
<glyph glyph-name="key-right" unicode="&#116;" d="M494 257c0-3-1-5-3-7l-110-101c-3-3-6-3-10-2-3 2-5 5-5 8l0 64-357 0c-3 0-5 1-6 3-2 2-3 4-3 7l0 54c0 3 1 5 3 7 1 2 3 3 6 3l357 0 0 64c0 4 2 6 5 8 4 1 7 1 10-2l110-100c2-1 3-4 3-6z"/>
<glyph glyph-name="angle-right" unicode="&#117;" d="M150 506c-5 5-13 5-17 0-5-5-5-14 0-19l215-231-215-231c-5-5-5-14 0-19 4-5 12-5 17 0l233 250z"/>
</font>
</defs>
</svg>
