<svg xmlns="http://www.w3.org/2000/svg" xmlns:xlink="http://www.w3.org/1999/xlink" version="1.1" id="foundersSign" x="0px" y="0px" width="130px" height="43px" viewBox="0 150 520 170" enable-background="new 0 0 500 500" xml:space="preserve">
  <path d="M191.594,168.015c4.236,0,8.042-0.563,11.417-1.689c3.378-1.123,5.759-2.25,7.152-3.375c1.39-1.124,2.084-1.953,2.084-2.484  c0-0.528-0.63-0.794-1.888-0.794c-1.26,0-2.814,0.135-4.665,0.398c-1.855,0.268-30.852,0.396-86.984,0.396  c-17.081,0-33.267,2.319-48.559,6.952c-15.292,4.635-27.705,10.328-37.237,17.078c-9.533,6.753-17.045,13.737-22.54,20.954  c-5.492,7.216-8.243,13.304-8.243,18.271c0,4.964,1.492,8.638,4.469,11.022c2.979,2.381,7.382,3.574,13.206,3.574  c13.636,0,27.572-4.601,41.806-13.805c14.23-9.198,23.202-18.171,26.91-26.909c0.128-0.264,0.199-0.596,0.199-0.992  c0-0.398-0.135-0.595-0.4-0.595c-0.53,0-1.521,0.727-2.979,2.184c-8.738,9.401-19.561,17.177-32.469,23.335  c-12.908,6.155-23.9,9.234-32.967,9.234s-13.603-2.979-13.603-8.938c0-4.369,2.815-9.597,8.439-15.688  c5.63-6.09,13.04-12.016,22.244-17.775c9.199-5.759,20.584-10.624,34.158-14.597c13.571-3.973,27.373-5.959,41.406-5.959h1.985  l17.676,0.2C151.94,168.015,171.733,168.015,191.594,168.015L191.594,168.015z M124.072,175.958l-4.968,1.589  c-1.855,0.663-3.174,1.657-3.969,2.979c0.263,0.267-12.648,25.091-38.727,74.473c-23.702,0.795-36.612,1.854-38.726,3.179  c-2.516,2.251-3.774,3.706-3.774,4.368c0,0.528,0.528,0.792,1.59,0.792c8.738-1.059,21.315-1.853,37.732-2.381  c-14.433,27.405-21.646,41.437-21.646,42.102c0,0.659,0.56,0.994,1.688,0.994c1.121,0,2.745-0.466,4.865-1.393  c2.115-0.927,3.574-2.252,4.369-3.971l19.461-37.932h12.313c13.901,0,22.707,0.132,26.414,0.396c1.717,0,3.538-0.694,5.461-2.084  c1.918-1.391,2.88-2.513,2.88-3.375c0-0.859-4.305-1.357-12.911-1.489h-7.545c-4.767,0-12.582,0.132-23.434,0.396l39.521-76.658  c0.263-0.528,0.396-0.925,0.396-1.191L124.072,175.958z" />
  <path d="M163.389,283.698c0-0.464-0.333-0.695-0.992-0.695c-0.665,0-1.192,0.197-1.589,0.596c-3.046,1.984-6.685,2.976-10.922,2.976  h-2.385c5.032-6.882,7.548-13.235,7.548-19.062c0-8.738-4.042-13.106-12.117-13.106c-3.841,0-7.778,1.686-11.813,5.063  c-4.042,3.375-6.058,7.381-6.058,12.014c0,2.12,0.263,3.905,0.794,5.363c-5.695,7.02-8.539,13.174-8.539,18.47  c0,5.293,2.049,7.943,6.155,7.943c2.912,0,6.386-1.293,10.427-3.873c4.039-2.581,7.843-5.923,11.417-10.028h2.385  c5.426,0,10.192-1.258,14.297-3.774C162.925,284.789,163.389,284.161,163.389,283.698z M129.43,272.872  c-0.396-1.19-0.595-2.81-0.595-4.864c0-2.053,1.322-3.974,3.971-5.759c2.648-1.789,5.527-2.681,8.641-2.681  c3.109,0,5.66,0.792,7.646,2.382c1.984,1.589,2.979,3.905,2.979,6.951c0,5.296-2.581,10.99-7.748,17.078  c-5.955-1.455-10.393-4.499-13.304-9.134c2.648-3.308,6.619-7.018,11.914-11.122c1.458-1.059,2.185-1.886,2.185-2.48  c0-0.599-0.196-0.896-0.595-0.896c-0.395,0-0.926,0.133-1.589,0.396C138.036,265.26,133.532,268.639,129.43,272.872L129.43,272.872z   M141.543,288.762c-5.295,5.296-9.729,7.943-13.306,7.943c-2.117,0-3.176-1.193-3.176-3.574c0-4.369,1.059-8.342,3.176-11.916  C131.149,285.185,135.585,287.701,141.543,288.762L141.543,288.762z" />
  <path d="M189.403,302.661c7.014,0,19.462-6.087,37.336-18.268c1.191-0.528,1.787-1.193,1.787-1.988s-0.067-1.323-0.199-1.59  l-6.354,3.974c-4.237,2.65-9.134,5.264-14.697,7.844c-5.56,2.583-9.432,3.873-11.617,3.873c-2.186,0-3.276-0.662-3.276-1.985  c0.66-2.116,2.645-5.427,5.959-9.931c1.717-2.514,3.374-4.865,4.964-7.05c1.585-2.184,3.638-4.997,6.153-8.441  c2.514-3.44,4.502-6.223,5.959-8.34c0-0.527-1.326-1.059-3.971-1.589c-1.194,0-2.056,0.466-2.583,1.391  c-4.241,5.562-11.09,12.611-20.556,21.149c-9.465,8.539-16.053,12.811-19.761,12.811c-1.324,0-1.985-0.959-1.985-2.879  c0-1.921,5.693-10.56,17.081-25.918c0.793-1.191,1.191-1.985,1.191-2.385c0-0.396-1.525-1.059-4.568-1.984  c-1.063,0-1.921,0.53-2.581,1.589c-13.375,18.403-20.06,29.59-20.06,33.562c0,2.78,1.656,4.17,4.964,4.17  c5.958,0,16.814-7.148,32.571-21.447c-1.459,1.986-2.551,3.443-3.278,4.37c-0.727,0.926-2.185,3.11-4.369,6.554  c-2.184,3.441-3.275,5.89-3.275,7.348C184.24,300.94,185.959,302.661,189.403,302.661L189.403,302.661z" />
  <path d="M221.973,285.683c0,0.596,0.231,0.892,0.694,0.892c0.46,0,1.619-0.595,3.476-1.785c1.853-1.19,3.107-2.053,3.773-2.584  l9.929-7.943l1.989-0.99c0.26,0,0.395,0.267,0.395,0.794c0,0.528-2.616,4.7-7.843,12.509c-5.234,7.815-7.846,12.647-7.846,14.5  c0,1.851,0.398,2.78,1.193,2.78c1.058,0,5.759-3.047,14.102-9.137c8.338-6.088,15.553-11.319,21.646-15.688  c0,0.131-0.663,1.16-1.989,3.078c-1.323,1.921-2.877,4.27-4.664,7.049c-1.788,2.78-2.68,5.695-2.68,8.739  c0,3.178,2.049,4.765,6.155,4.765c7.019,0,19.464-6.087,37.338-18.268c1.19-0.528,1.789-1.193,1.789-1.988s-0.075-1.323-0.205-1.59  l-6.352,3.974c-4.24,2.65-9.138,5.264-14.697,7.844c-5.564,2.583-9.766,3.873-12.611,3.873c-2.849,0-4.267-0.595-4.267-1.788  c0-1.719,2.247-5.592,6.75-11.617c4.499-6.024,6.751-9.366,6.751-10.029c0-1.718-0.793-2.647-2.382-2.78  c-0.796,0-1.658,0.3-2.586,0.896c-0.926,0.595-3.964,2.847-9.131,6.75c-5.163,3.908-10.127,7.614-14.896,11.122  c-4.765,3.51-7.381,5.264-7.843,5.264c-0.467,0-0.765-0.065-0.895-0.2c0.398-0.795,1.885-3.108,4.469-6.949  c2.579-3.842,4.897-7.548,6.95-11.122c2.051-3.575,3.078-6.223,3.078-7.943c0-1.719-0.991-2.583-2.979-2.583  c-0.663,0-6.025,3.973-16.085,11.917c-4.106,3.178-7.416,5.494-9.929,6.952C222.168,284.657,221.973,285.088,221.973,285.683z" />
  <path d="M367.242,234.744c12.908-17.608,19.361-28.599,19.361-32.967c0-1.059-0.327-2.152-0.99-3.278  c-0.663-1.124-1.525-1.686-2.581-1.686c-5.958,0-14.466,6.75-25.52,20.256c-11.055,13.503-20.358,28-27.905,43.492  c-8.738,1.189-17.973,6.057-27.702,14.596c-9.729,8.542-14.599,15.658-14.599,21.35c0,3.839,2.817,5.76,8.441,5.76  c5.629,0,13.731-4.634,24.328-13.902c-0.135,0.927-0.198,2.252-0.198,3.974c0,7.412,2.779,11.119,8.339,11.119  c2.78,0,5.561-0.862,8.34-2.581c2.785-1.719,4.175-3.375,4.175-4.964c0-0.265-0.168-0.399-0.502-0.399  c-0.327,0-1.584,0.499-3.77,1.489c-2.183,0.995-3.739,1.491-4.667,1.491c-3.447,0-5.16-2.051-5.16-6.155  c0-4.103,0.464-7.943,1.391-11.521C341.26,267.709,354.335,252.352,367.242,234.744z M363.966,233.75  c-10.196,13.902-21.451,27.341-33.762,40.316c3.308-9.533,8.41-20.024,15.295-31.478c6.88-11.45,13.468-20.884,19.76-28.299  c6.282-7.416,10.554-11.122,12.806-11.122c0.793,0,1.191,0.531,1.191,1.589C379.256,210.183,374.159,219.849,363.966,233.75z   M307.169,278.83c6.879-6.882,13.57-11.121,20.057-12.708c-2.381,5.164-4.439,10.791-6.152,16.881  c-10.333,9.929-17.283,14.894-20.859,14.894c-2.252,0-3.372-0.994-3.372-2.979C296.842,291.078,300.278,285.716,307.169,278.83z" />
  <path d="M341.923,297.796c0,4.434,3.339,6.653,10.03,6.653c6.68,0,14.195-2.154,22.54-6.453c8.34-4.303,16.017-8.839,23.035-13.603  c1.191-0.528,1.79-1.193,1.79-1.988s-0.07-1.323-0.206-1.59l-3.77,2.385c-7.148,4.368-15.096,8.474-23.835,12.312  c-5.43,2.252-10.289,3.378-14.594,3.378s-6.453-1.653-6.453-4.967c0-2.909,3.275-6.419,9.832-10.524  c6.55-4.102,9.826-6.485,9.826-7.148s-1.056-0.927-3.179-0.794c-2.117,0.131-3.571,0.198-4.364,0.198  c-4.639,0-6.948-0.993-6.948-2.979c0-2.647,3.173-6.059,9.529-10.229c6.351-4.172,11.022-6.257,14.001-6.257  c2.979,0,4.466,0.596,4.466,1.789c0,1.19-0.824,2.284-2.483,3.274c-1.653,0.995-2.349,1.956-2.079,2.881  c0.258,0.664,0.793,0.993,1.584,0.993c0.265,0,1.326-0.463,3.178-1.39c1.854-0.927,3.771-2.185,5.759-3.773  c1.989-1.59,2.98-3.044,2.98-4.369c0-2.384-1.918-3.575-5.759-3.575c-7.548,0-16.022,2.815-25.424,8.439  c-9.4,5.63-14.099,10.494-14.099,14.597c0,3.445,3.972,5.163,11.918,5.163C347.682,287.504,341.923,293.363,341.923,297.796z" />
  <path d="M413.216,270.093c2.646,0.53,4.795,0.861,6.455,0.994c1.653,0.132,2.478,0.463,2.478,0.991c0,0.53-0.958,1.688-2.876,3.477  c-1.918,1.786-4.041,3.674-6.357,5.66c-2.315,1.985-4.433,4.501-6.351,7.547c-1.925,3.047-2.884,5.956-2.884,8.738  c0,3.44,1.724,5.161,5.167,5.161c7.014,0,19.464-6.087,37.334-18.268c1.189-0.528,1.788-1.193,1.788-1.988s-0.069-1.323-0.199-1.59  l-6.357,3.974c-4.233,2.65-9.131,5.264-14.695,7.844c-5.56,2.583-9.202,3.873-10.921,3.873s-2.849-0.328-3.377-0.994  c-0.528-0.659-0.793-1.39-0.793-2.185c0-3.574,1.521-7.148,4.569-10.723c3.044-3.574,5.727-6.059,8.043-7.448  c2.317-1.39,3.476-3.407,3.476-6.058c0-1.985-3.18-3.504-9.531-4.566c4.893-5.562,7.348-10.79,7.348-15.689  c0-3.176-1.323-4.766-3.976-4.766c-3.971,0-8.209,2.085-12.708,6.255c-4.504,4.172-6.749,7.943-6.749,11.321  c0,3.375,2.972,5.99,8.932,7.844c-6.487,6.886-12.445,11.85-17.875,14.896c-0.394,0.396-0.593,0.861-0.593,1.39  s0.23,0.791,0.694,0.791s0.959-0.129,1.492-0.396C399.775,283.268,405.933,277.906,413.216,270.093L413.216,270.093z   M411.03,251.921c2.649-2.313,4.966-3.475,6.949-3.475c1.987,0,2.984,1.557,2.984,4.666c0,3.113-1.724,6.787-5.167,11.022  c-5.823-1.06-8.737-2.912-8.737-5.561C407.06,256.458,408.379,254.238,411.03,251.921z" />
  <path d="M458.595,282.205c2.181,1.725,3.673,3.114,4.466,4.173c-5.96,1.062-11.647,3.047-17.078,5.959  c-5.425,2.911-8.141,6.122-8.141,9.629c0,3.508,2.946,5.264,8.835,5.264s11.551-1.622,16.98-4.865  c5.425-3.242,8.141-7.049,8.141-11.418c0-4.372-1.454-8.011-4.363-10.923c-1.066-1.061-2.456-2.415-4.17-4.072  c-1.725-1.654-2.92-2.812-3.578-3.476c0.399-0.397,0.959-1.022,1.687-1.885c0.729-0.862,1.423-1.622,2.085-2.284  c0.663-0.663,1.261-1.322,1.788-1.987c5.292-6.354,7.942-10.357,7.942-12.014c0-1.654-0.862-2.484-2.576-2.484  c-3.178,0-7.09,2.056-11.722,6.158c-4.634,4.104-6.95,8.409-6.95,12.907c0,1.856,0.329,3.574,0.99,5.164  c-4.233,3.841-7.939,6.621-11.117,8.343c-0.4,0.396-0.595,0.861-0.595,1.39s0.266,0.791,0.793,0.791  c1.72,0,5.759-2.909,12.116-8.737C454.92,279.03,456.411,280.487,458.595,282.205z M464.45,288.762  c0.528,1.854,0.796,3.841,0.796,5.956c0,2.12-1.421,4.04-4.267,5.761c-2.854,1.719-6.093,2.581-9.734,2.581s-5.456-1.29-5.456-3.874  c0-2.58,1.981-4.832,5.958-6.75C455.711,290.518,459.951,289.29,464.45,288.762L464.45,288.762z M456.906,266.219  c0-2.05,1.191-4.169,3.578-6.354c2.382-2.185,4.698-3.275,6.95-3.275c0.791,0,1.19,0.432,1.19,1.291  c0,0.861-1.724,3.343-5.167,7.447l-5.161,5.56C457.37,269.828,456.906,268.273,456.906,266.219z" />
  <path d="M500,296.506c0-2.513-1.461-3.773-4.369-3.773c-1.325,0-2.716,0.53-4.17,1.59c-1.46,1.061-2.154,2.383-2.091,3.97  c0.066,1.59,0.465,2.712,1.196,3.378c0.722,0.659,1.854,0.991,3.372,0.991c1.525,0,2.915-0.662,4.17-1.985  C499.37,299.354,500,297.964,500,296.506L500,296.506z" />
</svg>
