<svg version="1.1" id="oeLogo" xmlns="http://www.w3.org/2000/svg" xmlns:xlink="http://www.w3.org/1999/xlink" x="0px" y="0px" width="110px" height="110px" viewBox="228 214 172 172" enable-background="new 0 0 600 600" xml:space="preserve">
  <path d="M397.992,319.176c0-0.849-0.055-1.684-0.15-2.508c-0.015-0.129-0.033-0.26-0.049-0.391 c-0.025-0.193-0.053-0.387-0.084-0.58c-0.039-0.246-0.084-0.496-0.133-0.749c-0.014-0.07-0.029-0.14-0.043-0.21 c-0.321-1.555-0.838-3.188-1.633-4.848c-0.188-0.39-0.389-0.769-0.6-1.14c-3.671-6.617-10.727-11.099-18.83-11.099 c-3.17,0-6.177,0.69-8.886,1.92c-0.132,0.059-0.269,0.114-0.397,0.176c-0.057,0.027-0.106,0.058-0.164,0.085 c-0.305,0.15-0.605,0.306-0.902,0.468c-0.191,0.105-0.375,0.213-0.559,0.322c-0.147,0.087-0.293,0.174-0.438,0.264 c-0.208,0.131-0.414,0.26-0.614,0.395c-0.089,0.061-0.177,0.123-0.265,0.184c-0.756,0.521-1.447,1.07-2.078,1.633 c-0.069,0.062-0.14,0.121-0.208,0.185c-0.168,0.153-0.328,0.309-0.486,0.465c-0.111,0.106-0.224,0.216-0.332,0.327 c-0.131,0.132-0.256,0.264-0.379,0.396c-0.132,0.139-0.261,0.279-0.388,0.422c-0.103,0.115-0.2,0.229-0.297,0.344 c-0.134,0.156-0.265,0.313-0.392,0.474c-0.092,0.113-0.18,0.228-0.267,0.339c-0.114,0.146-0.228,0.296-0.337,0.447 c-0.109,0.15-0.216,0.3-0.318,0.447c-0.07,0.103-0.141,0.201-0.209,0.304c-1.078,1.606-1.733,3.026-2.078,3.887 c0.03-0.088,0.053-0.182,0.066-0.278c-5.574,17.313-21.809,29.846-40.977,29.846c-23.773,0-43.046-19.271-43.046-43.046 c0-18.918,12.209-34.975,29.173-40.749c-0.045,0.007-0.094,0.013-0.135,0.028c8.186-3.047,14.017-10.929,14.017-20.175 c0-11.887-9.636-21.523-21.523-21.523c-2.518,0-4.934,0.437-7.179,1.231v-0.001c-33.439,11.819-57.399,43.703-57.399,81.189 c0,47.547,38.545,86.093,86.092,86.093c37.832,0,69.963-24.402,81.516-58.326c0.189-0.629,0.43-1.549,0.615-2.707 C397.889,321.562,397.992,320.381,397.992,319.176z" />
  <path d="M315.382,276.13c11.887,0,21.523,9.636,21.523,21.523c0,11.887-9.637,21.523-21.523,21.523s-21.523-9.636-21.523-21.523 C293.859,285.766,303.495,276.13,315.382,276.13z" />
  <path d="M361.223,230.437c-11.887,0-21.522,9.636-21.522,21.523c0,11.887,9.636,21.523,21.522,21.523s21.523-9.636,21.523-21.523 C382.746,240.073,373.109,230.437,361.223,230.437z M361.223,262.122c-5.611,0-10.162-4.549-10.162-10.161 c0-5.612,4.551-10.162,10.162-10.162c5.612,0,10.162,4.55,10.162,10.162C371.384,257.572,366.834,262.122,361.223,262.122z" />
</svg>
